<svg fill="none" height="20" viewBox="0 0 20 20" width="20" xmlns="http://www.w3.org/2000/svg" xmlns:xlink="http://www.w3.org/1999/xlink"><linearGradient id="a" gradientUnits="userSpaceOnUse" x1="6.88003" x2="13.1833" y1="17.35" y2="2.15623"><stop offset="0" stop-color="#50657b"/><stop offset="1" stop-color="#6f87a0"/></linearGradient><path d="m10.883 6.75859 1.175 1.175c2.275 2.27501 2.275 5.96671 0 8.24171-.0083 0-.0083 0-.0083 0l-.3.2916c-2.28332 2.275-5.97499 2.275-8.24999 0-2.28333-2.2833-2.28333-5.975-.00083-8.24997l1.175 1.175h-.0075c-1.64167 1.61667-1.65 4.24997-.03333 5.89167 1.61666 1.6333 4.25 1.6417 5.89245.025.0084-.0167.0167-.025.025-.0333l.2917-.3c1.625-1.6334 1.625-4.2667 0-5.89171l-1.18332-1.18333 1.17412-1.18333zm5.5917 5.00831-1.1833-1.1833c1.6333-1.62501 1.6416-4.25917.025-5.90084-1.625-1.64167-4.2584-1.65-5.90002-.03333-.01667.00833-.025.01666-.03333.025l-.3.29166v-.0075c-1.63334 1.625-1.63334 4.25834 0 5.89171l1.17495 1.175-1.18329 1.175-1.18333-1.1834h-.00833c-2.28334-2.28331-2.28334-5.97497-.00834-8.24997 0-.00834 0-.00834 0-.00834l.29167-.3c2.27502-2.28333 5.96662-2.28333 8.25002 0 2.275 2.275 2.275 5.96667 0 8.25001z" fill="url(#a)"/></svg>